# xmcd
#
# Track frame offsets:
#	150
#	12855
#	32690
#	45135
#	59082
#	72730
#	82485
#	100490
#	124522
#	138135
#	162607
#	178112
#	188940
#	197680
#	220025
#	233547
#	243675
#	257732
#	268495
#
# Disc length: 3863 seconds
#
# Revision: 2
# Processed by: cddbd v1.5.1PL2 Copyright (c) Steve Scherf et al.
# Submitted via: EasyCDDAExtractor 9.0.0.1
#
DISCID=200f1513
DTITLE=Various Artist - Saturday Night Shuffle
DYEAR=1993
DGENRE=Country
TTITLE0=Vassar Clements and Buddy Emmons - There Ain't A Cow In Texas
TTITLE1=Vassar Clements and Jerry Douglas - Me And The Dog Gone Blues
TTITLE2=Thom Bresh - Guitar Rag
TTITLE3=Thom Bresh and Buddy Emmons - Sweet Temptation
TTITLE4=Marty Stuart, Thom Bresh, Josh Graves, John Hartford and Vassar Clements
TTITLE4=Sixteen Tons
TTITLE5=Marcel Dadi - Saturday Night Shuffle
TTITLE6=Vassar Clements and Jerry Douglas - Knee Deep In Trouble
TTITLE7=John Hartford, Marty Stuart and Vassar Clements - I Am A Pilgrim
TTITLE8=Chet Atkins and Marcel Dadi - Cannon Ball Rag
TTITLE9=Thom Bresh and Mike Cass - Travis Medley: Divorce Me C.O.D./So Round So 
TTITLE9=Firm/Fat Gal
TTITLE10=Mark O'Connor and Vassar Clements - Bayou Baby
TTITLE11=Vassar Clements and Buddy Emmons - Kinfolks In Carolina
TTITLE12=Marcel Dadi and Thom Bresh - Walking The Strings
TTITLE13=Thom Bresh - That's All
TTITLE14=Lane Brody and Thom Bresh - Too Much Sugar For A Dime
TTITLE15=Chet Atkins and Marcel Dadi - Nine Pound Hammer
TTITLE16=Thom Bresh, Mike Cass and Sam Bush - Smoke! Smoke! Smoke!
TTITLE17=Thom Bresh - Childhood Memories
TTITLE18=John Hartford, Marty Stuart, Thom Bresh and Grandpa Jones - Dark As A D
TTITLE18=ungeon
EXTD=
EXTT0=
EXTT1=
EXTT2=
EXTT3=
EXTT4=
EXTT5=
EXTT6=
EXTT7=
EXTT8=
EXTT9=
EXTT10=
EXTT11=
EXTT12=
EXTT13=
EXTT14=
EXTT15=
EXTT16=
EXTT17=
EXTT18=
PLAYORDER=
